<mxfile host="app.diagrams.net" modified="2022-04-15T01:26:29.391Z" agent="5.0 (Windows NT 10.0; Win64; x64) AppleWebKit/537.36 (KHTML, like Gecko) Chrome/100.0.4896.75 Safari/537.36" etag="1jF0cyiWQuwD4hRQ-jFn" version="17.4.3" type="github">
  <diagram id="mFIBjMatwqv9zrCMEHtk" name="Page-1">
    <mxGraphModel dx="1077" dy="1163" grid="0" gridSize="10" guides="1" tooltips="1" connect="1" arrows="1" fold="1" page="0" pageScale="1" pageWidth="827" pageHeight="1169" math="0" shadow="0">
      <root>
        <mxCell id="0" />
        <mxCell id="1" parent="0" />
        <mxCell id="dwsEpWfKZE3AacDFBKlv-11" value="" style="shape=flexArrow;endArrow=classic;html=1;rounded=0;fontSize=36;fillColor=#d5e8d4;strokeColor=#82b366;" parent="1" edge="1">
          <mxGeometry width="50" height="50" relative="1" as="geometry">
            <mxPoint x="912" y="-587.5000000000002" as="sourcePoint" />
            <mxPoint x="984" y="-587.5000000000002" as="targetPoint" />
          </mxGeometry>
        </mxCell>
        <mxCell id="UtfqjHqFpcmVN3OdeLfu-8" style="edgeStyle=orthogonalEdgeStyle;rounded=0;orthogonalLoop=1;jettySize=auto;html=1;entryX=-0.002;entryY=0.456;entryDx=0;entryDy=0;entryPerimeter=0;" parent="1" source="UtfqjHqFpcmVN3OdeLfu-1" target="UtfqjHqFpcmVN3OdeLfu-4" edge="1">
          <mxGeometry relative="1" as="geometry" />
        </mxCell>
        <mxCell id="UtfqjHqFpcmVN3OdeLfu-1" value="输入" style="rounded=0;whiteSpace=wrap;html=1;" parent="1" vertex="1">
          <mxGeometry x="-188" y="-676" width="54" height="42" as="geometry" />
        </mxCell>
        <mxCell id="UtfqjHqFpcmVN3OdeLfu-2" value="显著异常点" style="rounded=0;whiteSpace=wrap;html=1;" parent="1" vertex="1">
          <mxGeometry x="690" y="-767" width="54" height="42" as="geometry" />
        </mxCell>
        <mxCell id="UtfqjHqFpcmVN3OdeLfu-3" value="绝缘子高亮" style="rounded=0;whiteSpace=wrap;html=1;" parent="1" vertex="1">
          <mxGeometry x="685" y="-632" width="54" height="42" as="geometry" />
        </mxCell>
        <mxCell id="UtfqjHqFpcmVN3OdeLfu-11" style="edgeStyle=orthogonalEdgeStyle;rounded=0;orthogonalLoop=1;jettySize=auto;html=1;exitX=1;exitY=0.5;exitDx=0;exitDy=0;entryX=0;entryY=0.5;entryDx=0;entryDy=0;" parent="1" source="UtfqjHqFpcmVN3OdeLfu-4" target="UtfqjHqFpcmVN3OdeLfu-5" edge="1">
          <mxGeometry relative="1" as="geometry" />
        </mxCell>
        <mxCell id="UtfqjHqFpcmVN3OdeLfu-4" value="红外目标检测模型" style="rounded=1;whiteSpace=wrap;html=1;fillColor=#f8cecc;strokeColor=#b85450;" parent="1" vertex="1">
          <mxGeometry x="-99" y="-683" width="120" height="60" as="geometry" />
        </mxCell>
        <mxCell id="UtfqjHqFpcmVN3OdeLfu-38" style="edgeStyle=orthogonalEdgeStyle;rounded=0;orthogonalLoop=1;jettySize=auto;html=1;exitX=1;exitY=0.5;exitDx=0;exitDy=0;" parent="1" source="UtfqjHqFpcmVN3OdeLfu-5" target="UtfqjHqFpcmVN3OdeLfu-37" edge="1">
          <mxGeometry relative="1" as="geometry" />
        </mxCell>
        <mxCell id="UtfqjHqFpcmVN3OdeLfu-5" value="&lt;span&gt;金具目标定位&lt;/span&gt;" style="rounded=1;whiteSpace=wrap;html=1;fillColor=#d5e8d4;strokeColor=#82b366;" parent="1" vertex="1">
          <mxGeometry x="61" y="-683" width="99" height="60" as="geometry" />
        </mxCell>
        <mxCell id="UtfqjHqFpcmVN3OdeLfu-23" style="edgeStyle=orthogonalEdgeStyle;rounded=0;orthogonalLoop=1;jettySize=auto;html=1;exitX=1;exitY=0.5;exitDx=0;exitDy=0;" parent="1" source="UtfqjHqFpcmVN3OdeLfu-6" edge="1">
          <mxGeometry relative="1" as="geometry">
            <mxPoint x="568.4000000000001" y="-698" as="targetPoint" />
          </mxGeometry>
        </mxCell>
        <mxCell id="UtfqjHqFpcmVN3OdeLfu-6" value="绝缘子连接处亮度检测" style="rounded=1;whiteSpace=wrap;html=1;fillColor=#ffe6cc;strokeColor=#d79b00;" parent="1" vertex="1">
          <mxGeometry x="427" y="-728" width="120" height="60" as="geometry" />
        </mxCell>
        <mxCell id="UtfqjHqFpcmVN3OdeLfu-14" style="edgeStyle=orthogonalEdgeStyle;rounded=0;orthogonalLoop=1;jettySize=auto;html=1;exitX=1;exitY=0.5;exitDx=0;exitDy=0;" parent="1" source="UtfqjHqFpcmVN3OdeLfu-9" edge="1">
          <mxGeometry relative="1" as="geometry">
            <mxPoint x="426.47619047619037" y="-695.1428571428571" as="targetPoint" />
          </mxGeometry>
        </mxCell>
        <mxCell id="UtfqjHqFpcmVN3OdeLfu-9" value="金具连接处定位" style="rounded=1;whiteSpace=wrap;html=1;fillColor=#fff2cc;strokeColor=#d6b656;" parent="1" vertex="1">
          <mxGeometry x="284" y="-725" width="120" height="60" as="geometry" />
        </mxCell>
        <mxCell id="UtfqjHqFpcmVN3OdeLfu-19" style="edgeStyle=orthogonalEdgeStyle;rounded=0;orthogonalLoop=1;jettySize=auto;html=1;exitX=1;exitY=0.5;exitDx=0;exitDy=0;" parent="1" source="UtfqjHqFpcmVN3OdeLfu-10" edge="1">
          <mxGeometry relative="1" as="geometry">
            <mxPoint x="424.79999999999995" y="-618" as="targetPoint" />
          </mxGeometry>
        </mxCell>
        <mxCell id="UtfqjHqFpcmVN3OdeLfu-10" value="绝缘子分析" style="rounded=1;whiteSpace=wrap;html=1;fillColor=#fff2cc;strokeColor=#d6b656;" parent="1" vertex="1">
          <mxGeometry x="284" y="-648" width="120" height="60" as="geometry" />
        </mxCell>
        <mxCell id="UtfqjHqFpcmVN3OdeLfu-24" style="edgeStyle=orthogonalEdgeStyle;rounded=0;orthogonalLoop=1;jettySize=auto;html=1;exitX=1;exitY=0.5;exitDx=0;exitDy=0;entryX=0.015;entryY=0.473;entryDx=0;entryDy=0;entryPerimeter=0;" parent="1" source="UtfqjHqFpcmVN3OdeLfu-13" target="UtfqjHqFpcmVN3OdeLfu-21" edge="1">
          <mxGeometry relative="1" as="geometry">
            <Array as="points">
              <mxPoint x="547" y="-612" />
              <mxPoint x="571" y="-612" />
            </Array>
          </mxGeometry>
        </mxCell>
        <mxCell id="UtfqjHqFpcmVN3OdeLfu-13" value="扇区亮度检测" style="rounded=1;whiteSpace=wrap;html=1;fillColor=#ffe6cc;strokeColor=#d79b00;" parent="1" vertex="1">
          <mxGeometry x="427" y="-648" width="120" height="60" as="geometry" />
        </mxCell>
        <mxCell id="UtfqjHqFpcmVN3OdeLfu-26" style="edgeStyle=orthogonalEdgeStyle;rounded=0;orthogonalLoop=1;jettySize=auto;html=1;" parent="1" source="UtfqjHqFpcmVN3OdeLfu-20" target="UtfqjHqFpcmVN3OdeLfu-2" edge="1">
          <mxGeometry relative="1" as="geometry">
            <Array as="points">
              <mxPoint x="610" y="-746" />
            </Array>
          </mxGeometry>
        </mxCell>
        <mxCell id="UtfqjHqFpcmVN3OdeLfu-33" value="Y" style="edgeLabel;html=1;align=center;verticalAlign=middle;resizable=0;points=[];" parent="UtfqjHqFpcmVN3OdeLfu-26" vertex="1" connectable="0">
          <mxGeometry x="0.0125" relative="1" as="geometry">
            <mxPoint as="offset" />
          </mxGeometry>
        </mxCell>
        <mxCell id="UtfqjHqFpcmVN3OdeLfu-32" style="edgeStyle=orthogonalEdgeStyle;rounded=0;orthogonalLoop=1;jettySize=auto;html=1;exitX=1;exitY=0.5;exitDx=0;exitDy=0;" parent="1" source="UtfqjHqFpcmVN3OdeLfu-20" edge="1">
          <mxGeometry relative="1" as="geometry">
            <mxPoint x="689.2483221476509" y="-697.4966442953021" as="targetPoint" />
          </mxGeometry>
        </mxCell>
        <mxCell id="UtfqjHqFpcmVN3OdeLfu-34" value="N" style="edgeLabel;html=1;align=center;verticalAlign=middle;resizable=0;points=[];" parent="UtfqjHqFpcmVN3OdeLfu-32" vertex="1" connectable="0">
          <mxGeometry x="-0.2042" y="1" relative="1" as="geometry">
            <mxPoint as="offset" />
          </mxGeometry>
        </mxCell>
        <mxCell id="UtfqjHqFpcmVN3OdeLfu-20" value="&lt;font style=&quot;font-size: 6px&quot;&gt;过热/亮点存在？&lt;/font&gt;" style="rhombus;whiteSpace=wrap;html=1;" parent="1" vertex="1">
          <mxGeometry x="572.5" y="-737" width="75" height="79" as="geometry" />
        </mxCell>
        <mxCell id="UtfqjHqFpcmVN3OdeLfu-30" style="edgeStyle=orthogonalEdgeStyle;rounded=0;orthogonalLoop=1;jettySize=auto;html=1;exitX=0.5;exitY=0;exitDx=0;exitDy=0;entryX=0.581;entryY=1.01;entryDx=0;entryDy=0;entryPerimeter=0;" parent="1" source="UtfqjHqFpcmVN3OdeLfu-21" target="UtfqjHqFpcmVN3OdeLfu-25" edge="1">
          <mxGeometry relative="1" as="geometry">
            <Array as="points">
              <mxPoint x="722" y="-651" />
              <mxPoint x="722" y="-661" />
              <mxPoint x="721" y="-661" />
            </Array>
          </mxGeometry>
        </mxCell>
        <mxCell id="UtfqjHqFpcmVN3OdeLfu-36" value="N" style="edgeLabel;html=1;align=center;verticalAlign=middle;resizable=0;points=[];" parent="UtfqjHqFpcmVN3OdeLfu-30" vertex="1" connectable="0">
          <mxGeometry x="-0.1017" relative="1" as="geometry">
            <mxPoint as="offset" />
          </mxGeometry>
        </mxCell>
        <mxCell id="UtfqjHqFpcmVN3OdeLfu-31" style="edgeStyle=orthogonalEdgeStyle;rounded=0;orthogonalLoop=1;jettySize=auto;html=1;exitX=1;exitY=0.5;exitDx=0;exitDy=0;" parent="1" source="UtfqjHqFpcmVN3OdeLfu-21" edge="1">
          <mxGeometry relative="1" as="geometry">
            <mxPoint x="684.4000000000001" y="-610.8" as="targetPoint" />
          </mxGeometry>
        </mxCell>
        <mxCell id="UtfqjHqFpcmVN3OdeLfu-35" value="Y" style="edgeLabel;html=1;align=center;verticalAlign=middle;resizable=0;points=[];" parent="UtfqjHqFpcmVN3OdeLfu-31" vertex="1" connectable="0">
          <mxGeometry x="-0.3495" y="-1" relative="1" as="geometry">
            <mxPoint as="offset" />
          </mxGeometry>
        </mxCell>
        <mxCell id="UtfqjHqFpcmVN3OdeLfu-21" value="过热/亮扇区存在？" style="rhombus;whiteSpace=wrap;html=1;" parent="1" vertex="1">
          <mxGeometry x="572.5" y="-651" width="80" height="80" as="geometry" />
        </mxCell>
        <mxCell id="UtfqjHqFpcmVN3OdeLfu-25" value="正常" style="rounded=0;whiteSpace=wrap;html=1;" parent="1" vertex="1">
          <mxGeometry x="690" y="-716" width="54" height="42" as="geometry" />
        </mxCell>
        <mxCell id="UtfqjHqFpcmVN3OdeLfu-39" style="edgeStyle=orthogonalEdgeStyle;rounded=0;orthogonalLoop=1;jettySize=auto;html=1;exitX=0.5;exitY=1;exitDx=0;exitDy=0;entryX=0.012;entryY=0.546;entryDx=0;entryDy=0;entryPerimeter=0;" parent="1" source="UtfqjHqFpcmVN3OdeLfu-37" target="UtfqjHqFpcmVN3OdeLfu-10" edge="1">
          <mxGeometry relative="1" as="geometry">
            <Array as="points">
              <mxPoint x="221" y="-615" />
              <mxPoint x="281" y="-615" />
            </Array>
          </mxGeometry>
        </mxCell>
        <mxCell id="UtfqjHqFpcmVN3OdeLfu-40" value="N" style="edgeLabel;html=1;align=center;verticalAlign=middle;resizable=0;points=[];" parent="UtfqjHqFpcmVN3OdeLfu-39" vertex="1" connectable="0">
          <mxGeometry x="-0.1081" relative="1" as="geometry">
            <mxPoint as="offset" />
          </mxGeometry>
        </mxCell>
        <mxCell id="UtfqjHqFpcmVN3OdeLfu-41" style="edgeStyle=orthogonalEdgeStyle;rounded=0;orthogonalLoop=1;jettySize=auto;html=1;exitX=0.5;exitY=0;exitDx=0;exitDy=0;entryX=0;entryY=0.5;entryDx=0;entryDy=0;" parent="1" source="UtfqjHqFpcmVN3OdeLfu-37" target="UtfqjHqFpcmVN3OdeLfu-9" edge="1">
          <mxGeometry relative="1" as="geometry">
            <Array as="points">
              <mxPoint x="221" y="-695" />
            </Array>
          </mxGeometry>
        </mxCell>
        <mxCell id="UtfqjHqFpcmVN3OdeLfu-42" value="Y" style="edgeLabel;html=1;align=center;verticalAlign=middle;resizable=0;points=[];" parent="UtfqjHqFpcmVN3OdeLfu-41" vertex="1" connectable="0">
          <mxGeometry x="-0.1024" y="1" relative="1" as="geometry">
            <mxPoint as="offset" />
          </mxGeometry>
        </mxCell>
        <mxCell id="UtfqjHqFpcmVN3OdeLfu-37" value="双金具目标配对成功?" style="rhombus;whiteSpace=wrap;html=1;" parent="1" vertex="1">
          <mxGeometry x="181" y="-693" width="80" height="80" as="geometry" />
        </mxCell>
      </root>
    </mxGraphModel>
  </diagram>
</mxfile>
